<svg xmlns="http://www.w3.org/2000/svg" width="13.729" height="8.75" viewBox="0 0 13.729 8.75"><defs><style>.a{fill:#999;}</style></defs><path class="a" d="M13.642,96.943c-.123-.168-3.045-4.108-6.777-4.108S.21,96.775.087,96.943a.453.453,0,0,0,0,.534c.123.168,3.045,4.108,6.777,4.108s6.655-3.94,6.777-4.108A.452.452,0,0,0,13.642,96.943ZM6.864,100.68c-2.749,0-5.13-2.615-5.835-3.47.7-.856,3.08-3.47,5.835-3.47s5.13,2.615,5.835,3.47C12,98.066,9.62,100.68,6.864,100.68Z" transform="translate(0 -92.835)"/><path class="a" d="M157.438,154.725a2.716,2.716,0,1,0,2.716,2.716A2.719,2.719,0,0,0,157.438,154.725Zm0,4.526a1.81,1.81,0,1,1,1.81-1.81A1.812,1.812,0,0,1,157.438,159.251Z" transform="translate(-150.573 -153.065)"/></svg>