<svg xmlns="http://www.w3.org/2000/svg" width="16" height="16" viewBox="0 0 16 16"><defs><style>.a{fill:#999;}</style></defs><path class="a" d="M14.317,4.21a.667.667,0,0,0-.31.89,6.6,6.6,0,0,1,.66,2.9A6.667,6.667,0,1,1,8,1.333a6.586,6.586,0,0,1,4.139,1.438.667.667,0,1,0,.83-1.044A8,8,0,1,0,16,8a7.918,7.918,0,0,0-.793-3.48.666.666,0,0,0-.89-.31Zm0,0" transform="translate(0 0)"/><path class="a" d="M176.792,64a.792.792,0,0,0-.792.792v5.542a.792.792,0,0,0,.792.792h3.958a.792.792,0,1,0,0-1.583h-3.167v-4.75A.792.792,0,0,0,176.792,64Zm0,0" transform="translate(-169.233 -61.633)"/></svg>