<svg xmlns="http://www.w3.org/2000/svg" width="11.679" height="23.12" viewBox="0 0 11.679 23.12"><defs><style>.a{fill:#03608e;}</style></defs><path class="a" d="M127.055,12.314h2.534V22.747a.373.373,0,0,0,.373.373h4.3a.373.373,0,0,0,.373-.373V12.363h2.913a.373.373,0,0,0,.37-.33l.443-3.841a.373.373,0,0,0-.37-.416h-3.356V5.368c0-.726.391-1.094,1.162-1.094h2.194a.373.373,0,0,0,.373-.373V.376A.373.373,0,0,0,137.988,0h-3.024c-.021,0-.069,0-.138,0a5.8,5.8,0,0,0-3.789,1.428,3.974,3.974,0,0,0-1.321,3.532V7.776h-2.661a.373.373,0,0,0-.373.373v3.792A.373.373,0,0,0,127.055,12.314Z" transform="translate(-126.682)"/></svg>