<svg xmlns="http://www.w3.org/2000/svg" width="18.871" height="18.871" viewBox="0 0 18.871 18.871"><defs><style>.a{fill:#03608e;}</style></defs><path class="a" d="M4.182,144.576l-.657,2.452-2.4.051a9.452,9.452,0,0,1-.069-8.811h0l2.137.392.936,2.125a5.631,5.631,0,0,0,.053,3.791Z" transform="translate(0 -133.172)"/><path class="a" d="M270.691,208.176a9.432,9.432,0,0,1-3.364,9.121h0l-2.692-.137-.381-2.379a5.623,5.623,0,0,0,2.419-2.872h-5.045v-3.733h9.063Z" transform="translate(-251.985 -200.503)"/><path class="a" d="M44.727,314.8h0a9.438,9.438,0,0,1-14.218-2.887l3.058-2.5a5.612,5.612,0,0,0,8.087,2.873Z" transform="translate(-29.385 -298.005)"/><path class="a" d="M43.027,2.172l-3.057,2.5A5.611,5.611,0,0,0,31.7,7.613L28.625,5.1h0a9.437,9.437,0,0,1,14.4-2.924Z" transform="translate(-27.569 0)"/></svg>