<svg xmlns="http://www.w3.org/2000/svg" width="32" height="26" viewBox="0 0 32 26"><defs><style>.a{fill:#caccd1;}</style></defs><path class="a" d="M7.862,26C2.476,26,0,21.251,0,15.92A16.762,16.762,0,0,1,2.646,6.627,18.641,18.641,0,0,1,10.634,0l.956,1.866A14.017,14.017,0,0,0,6.048,6.123c-2.37,2.966-2.712,5.951-2.016,8.038a6.573,6.573,0,0,1,8.516.427,6.83,6.83,0,0,1,1.008,8.186A6.584,6.584,0,0,1,7.893,26Zm9.676-10.078a16.775,16.775,0,0,1,2.643-9.293A18.606,18.606,0,0,1,28.17,0l.958,1.864a14.017,14.017,0,0,0-5.544,4.259v0c-2.37,2.963-2.712,5.948-2.016,8.038A6.139,6.139,0,0,1,25.4,12.8,6.289,6.289,0,0,1,32,19.4,6.471,6.471,0,0,1,25.4,26C20.014,26,17.538,21.251,17.538,15.922Z"/></svg>