<svg width="713" height="170" xmlns="http://www.w3.org/2000/svg">
 <g>
  <title>Layer 1</title>
  <polyline stroke-linecap="round" id="svg_16" points="810,200 " opacity="NaN" fill-opacity="null" stroke-opacity="null" stroke-dasharray="5,5" stroke-width="null" stroke="#000" fill="none"/>
  <polyline stroke-linecap="round" id="svg_17" points="808,201 " opacity="NaN" fill-opacity="null" stroke-opacity="null" stroke-dasharray="5,5" stroke-width="null" stroke="#000" fill="none"/>
  <polyline stroke-linecap="round" id="svg_18" points="754,265 " opacity="NaN" fill-opacity="null" stroke-opacity="null" stroke-dasharray="5,5" stroke-width="null" stroke="#000" fill="none"/>
  <polyline stroke-linecap="round" id="svg_19" points="812,202 " opacity="NaN" fill-opacity="null" stroke-opacity="null" stroke-dasharray="5,5" stroke-width="null" stroke="#000" fill="none"/>
  <polyline stroke-linecap="round" id="svg_20" points="733,270 " opacity="NaN" fill-opacity="null" stroke-opacity="null" stroke-dasharray="5,5" stroke-width="null" stroke="#000" fill="none"/>
  <polyline stroke-linecap="round" id="svg_21" points="664,307 " opacity="NaN" fill-opacity="null" stroke-opacity="null" stroke-dasharray="5,5" stroke-width="null" stroke="#000" fill="none"/>
  <polyline stroke-linecap="round" id="svg_22" points="664,307 " opacity="NaN" fill-opacity="null" stroke-opacity="null" stroke-dasharray="5,5" stroke-width="null" stroke="#000" fill="none"/>
  <polyline stroke-linecap="round" id="svg_23" points="664,307 " opacity="NaN" fill-opacity="null" stroke-opacity="null" stroke-dasharray="5,5" stroke-width="null" stroke="#000" fill="none"/>
  <polyline stroke-linecap="round" id="svg_24" points="320,242 " opacity="NaN" fill-opacity="null" stroke-opacity="null" stroke-dasharray="5,5" stroke-width="null" stroke="#000" fill="none"/>
  <polyline stroke-linecap="round" id="svg_25" points="504,273 " opacity="NaN" fill-opacity="null" stroke-opacity="null" stroke-dasharray="5,5" stroke-width="null" stroke="#000" fill="none"/>
  <polyline stroke-linecap="round" id="svg_26" points="504,273 " opacity="NaN" fill-opacity="null" stroke-opacity="null" stroke-dasharray="5,5" stroke-width="null" stroke="#000" fill="none"/>
  <polyline stroke-linecap="round" id="svg_27" points="504,273 " opacity="NaN" fill-opacity="null" stroke-opacity="null" stroke-dasharray="5,5" stroke-width="null" stroke="#000" fill="none"/>
  <polyline stroke-linecap="round" id="svg_28" points="413,95 " opacity="NaN" fill-opacity="null" stroke-opacity="null" stroke-dasharray="5,5" stroke-width="null" stroke="#000" fill="none"/>
  <polyline stroke-linecap="round" id="svg_29" points="744,245 " opacity="NaN" fill-opacity="null" stroke-opacity="null" stroke-dasharray="5,5" stroke-width="null" stroke="#000" fill="none"/>
  <polyline stroke-linecap="round" id="svg_30" points="569,301 " opacity="NaN" fill-opacity="null" stroke-opacity="null" stroke-dasharray="5,5" stroke-width="null" stroke="#000" fill="none"/>
  <polyline stroke-linecap="round" id="svg_31" points="569,301 " opacity="NaN" fill-opacity="null" stroke-opacity="null" stroke-dasharray="5,5" stroke-width="null" stroke="#000" fill="none"/>
  <polyline stroke-linecap="round" id="svg_32" points="569,301 " opacity="NaN" fill-opacity="null" stroke-opacity="null" stroke-dasharray="5,5" stroke-width="null" stroke="#000" fill="none"/>
  <polyline stroke-linecap="round" id="svg_33" points="782,223 " opacity="NaN" fill-opacity="null" stroke-opacity="null" stroke-dasharray="5,5" stroke-width="null" stroke="#000" fill="none"/>
  <polyline stroke-linecap="round" id="svg_34" points="592,287 " opacity="NaN" fill-opacity="null" stroke-opacity="null" stroke-dasharray="5,5" stroke-width="null" stroke="#000" fill="none"/>
  <polyline stroke-linecap="round" id="svg_35" points="592,287 " opacity="NaN" fill-opacity="null" stroke-opacity="null" stroke-dasharray="5,5" stroke-width="null" stroke="#000" fill="none"/>
  <polyline stroke-linecap="round" id="svg_36" points="592,287 " opacity="NaN" fill-opacity="null" stroke-opacity="null" stroke-dasharray="5,5" stroke-width="null" stroke="#000" fill="none"/>
  <polyline stroke-linecap="round" id="svg_37" points="592,287 " opacity="NaN" fill-opacity="null" stroke-opacity="null" stroke-dasharray="5,5" stroke-width="null" stroke="#000" fill="none"/>
  <polyline stroke-linecap="round" id="svg_38" points="757,74 " opacity="NaN" fill-opacity="null" stroke-opacity="null" stroke-dasharray="5,5" stroke-width="null" stroke="#000" fill="none"/>
  <polyline stroke-linecap="round" id="svg_39" points="801,234 " opacity="NaN" fill-opacity="null" stroke-opacity="null" stroke-dasharray="5,5" stroke-width="null" stroke="#000" fill="none"/>
  <polyline stroke-linecap="round" id="svg_40" points="633,289 " opacity="NaN" fill-opacity="null" stroke-opacity="null" stroke-dasharray="5,5" stroke-width="null" stroke="#000" fill="none"/>
  <polyline stroke-linecap="round" id="svg_41" points="633,289 " opacity="NaN" fill-opacity="null" stroke-opacity="null" stroke-dasharray="5,5" stroke-width="null" stroke="#000" fill="none"/>
  <polyline stroke-linecap="round" id="svg_42" points="633,289 " opacity="NaN" fill-opacity="null" stroke-opacity="null" stroke-dasharray="5,5" stroke-width="null" stroke="#000" fill="none"/>
  <polyline stroke-linecap="round" id="svg_43" points="221,265 " opacity="NaN" fill-opacity="null" stroke-opacity="null" stroke-dasharray="5,5" stroke-width="null" stroke="#000" fill="none"/>
  <polyline stroke-linecap="round" id="svg_44" points="574,253 " opacity="NaN" fill-opacity="null" stroke-opacity="null" stroke-dasharray="5,5" stroke-width="null" stroke="#000" fill="none"/>
  <polyline stroke-linecap="round" id="svg_45" points="781,236 " opacity="NaN" fill-opacity="null" stroke-opacity="null" stroke-dasharray="5,5" stroke-width="null" stroke="#000" fill="none"/>
  <polyline stroke-linecap="round" id="svg_46" points="802,217 " opacity="NaN" fill-opacity="null" stroke-opacity="null" stroke-dasharray="5,5" stroke-width="null" stroke="#000" fill="none"/>
  <polyline stroke-linecap="round" id="svg_47" points="446,310 " opacity="NaN" fill-opacity="null" stroke-opacity="null" stroke-dasharray="5,5" stroke-width="null" stroke="#000" fill="none"/>
  <polyline stroke-linecap="round" id="svg_48" points="684,279 " opacity="NaN" fill-opacity="null" stroke-opacity="null" stroke-dasharray="5,5" stroke-width="null" stroke="#000" fill="none"/>
  <polyline stroke-linecap="round" id="svg_49" points="453,310 " opacity="NaN" fill-opacity="null" stroke-opacity="null" stroke-dasharray="5,5" stroke-width="null" stroke="#000" fill="none"/>
  <polyline stroke-linecap="round" id="svg_50" points="738,266 " opacity="NaN" fill-opacity="null" stroke-opacity="null" stroke-dasharray="5,5" stroke-width="null" stroke="#000" fill="none"/>
  <polyline stroke-linecap="round" id="svg_51" points="738,266 " opacity="NaN" fill-opacity="null" stroke-opacity="null" stroke-dasharray="5,5" stroke-width="null" stroke="#000" fill="none"/>
  <polyline stroke-linecap="round" id="svg_52" points="738,266 " opacity="NaN" fill-opacity="null" stroke-opacity="null" stroke-dasharray="5,5" stroke-width="null" stroke="#000" fill="none"/>
  <polyline stroke-linecap="round" id="svg_53" points="738,266 " opacity="NaN" fill-opacity="null" stroke-opacity="null" stroke-dasharray="5,5" stroke-width="null" stroke="#000" fill="none"/>
  <polyline stroke-linecap="round" id="svg_54" points="738,266 " opacity="NaN" fill-opacity="null" stroke-opacity="null" stroke-dasharray="5,5" stroke-width="null" stroke="#000" fill="none"/>
  <polyline stroke-linecap="round" id="svg_59" points="290,261 " opacity="NaN" fill-opacity="null" stroke-opacity="null" stroke-dasharray="5,5" stroke-width="null" stroke="#000" fill="none"/>
  <polyline stroke-linecap="round" id="svg_60" points="668,275 " opacity="NaN" fill-opacity="null" stroke-opacity="null" stroke-dasharray="5,5" stroke-width="null" stroke="#000" fill="none"/>
  <polyline stroke-linecap="round" id="svg_61" points="678,319 " opacity="NaN" fill-opacity="null" stroke-opacity="null" stroke-dasharray="5,5" stroke-width="null" stroke="#000" fill="none"/>
  <polyline stroke-linecap="round" id="svg_62" points="678,319 " opacity="NaN" fill-opacity="null" stroke-opacity="null" stroke-dasharray="5,5" stroke-width="null" stroke="#000" fill="none"/>
  <polyline stroke-linecap="round" id="svg_63" points="678,319 " opacity="NaN" fill-opacity="null" stroke-opacity="null" stroke-dasharray="5,5" stroke-width="null" stroke="#000" fill="none"/>
  <polyline stroke-linecap="round" id="svg_64" points="678,319 " opacity="NaN" fill-opacity="null" stroke-opacity="null" stroke-dasharray="5,5" stroke-width="null" stroke="#000" fill="none"/>
  <polyline stroke-linecap="round" id="svg_65" points="678,319 " opacity="NaN" fill-opacity="null" stroke-opacity="null" stroke-dasharray="5,5" stroke-width="null" stroke="#000" fill="none"/>
  <polyline stroke-linecap="round" id="svg_66" points="907,360 " opacity="NaN" fill-opacity="null" stroke-opacity="null" stroke-dasharray="5,5" stroke-width="null" stroke="#000" fill="none"/>
  <polyline stroke-linecap="round" id="svg_67" points="764,302 " opacity="NaN" fill-opacity="null" stroke-opacity="null" stroke-dasharray="5,5" stroke-width="null" stroke="#000" fill="none"/>
  <polyline stroke-linecap="round" id="svg_68" points="891,291 " opacity="NaN" fill-opacity="null" stroke-opacity="null" stroke-dasharray="5,5" stroke-width="null" stroke="#000" fill="none"/>
  <polyline stroke-linecap="round" id="svg_69" points="823,375 " opacity="NaN" fill-opacity="null" stroke-opacity="null" stroke-dasharray="5,5" stroke-width="null" stroke="#000" fill="none"/>
  <polyline stroke-linecap="round" id="svg_70" points="627,304 " opacity="NaN" fill-opacity="null" stroke-opacity="null" stroke-dasharray="5,5" stroke-width="null" stroke="#000" fill="none"/>
  <polyline stroke-linecap="round" id="svg_71" points="1013,278 " opacity="NaN" fill-opacity="null" stroke-opacity="null" stroke-dasharray="5,5" stroke-width="null" stroke="#000" fill="none"/>
  <polyline stroke-linecap="round" id="svg_72" points="931,260 " opacity="NaN" fill-opacity="null" stroke-opacity="null" stroke-dasharray="5,5" stroke-width="null" stroke="#000" fill="none"/>
  <polyline stroke-linecap="round" id="svg_73" points="744,332 " opacity="NaN" fill-opacity="null" stroke-opacity="null" stroke-dasharray="5,5" stroke-width="null" stroke="#000" fill="none"/>
  <polyline stroke-linecap="round" id="svg_74" points="744,332 " opacity="NaN" fill-opacity="null" stroke-opacity="null" stroke-dasharray="5,5" stroke-width="null" stroke="#000" fill="none"/>
  <polyline stroke-linecap="round" id="svg_75" points="860,357 " opacity="NaN" fill-opacity="null" stroke-opacity="null" stroke-dasharray="5,5" stroke-width="null" stroke="#000" fill="none"/>
  <polyline stroke-linecap="round" id="svg_76" points="754,284 " opacity="NaN" fill-opacity="null" stroke-opacity="null" stroke-dasharray="5,5" stroke-width="null" stroke="#000" fill="none"/>
  <polyline stroke-linecap="round" id="svg_77" points="754,284 " opacity="NaN" fill-opacity="null" stroke-opacity="null" stroke-dasharray="5,5" stroke-width="null" stroke="#000" fill="none"/>
  <polyline stroke-linecap="round" id="svg_78" points="754,284 " opacity="NaN" fill-opacity="null" stroke-opacity="null" stroke-dasharray="5,5" stroke-width="null" stroke="#000" fill="none"/>
  <path d="m707,7c0,1 -0.29291,1.29289 -1,2c-0.70709,0.70711 -0.29291,1.29289 -1,2c-0.70709,0.70711 -0.29291,1.29289 -1,2c-0.70709,0.70711 -1.29291,2.29289 -2,3c-0.70709,0.70711 -1.29291,1.29289 -2,2c-0.70709,0.70711 -3.4588,1.69344 -4,3c-0.38269,0.92388 0,2 -1,2c-1,0 -1.61731,1.07612 -2,2c-0.5412,1.30656 -1.29291,2.29289 -2,3c-0.70709,0.70711 -1,1 -2,2c-1,1 -1.29291,2.29289 -2,3c-0.70709,0.70711 -1,1 -2,1c-1,0 -1.29291,0.29289 -2,1c-0.70709,0.70711 -0.29291,2.29289 -1,3c-0.70709,0.70711 -1,1 -2,1c-1,0 -1.29291,0.29289 -2,1c-0.70709,0.70711 -0.29291,1.29289 -1,2c-0.70709,0.70711 -1.29291,0.29289 -2,1c-0.70709,0.70711 -1.29291,0.29289 -2,1c-0.70709,0.70711 -2,0 -2,1c0,1 -1,1 -2,1c-1,0 -2,1 -3,1c-1,0 -1,1 -2,1c-1,0 -1.29291,0.29289 -2,1c-0.70709,0.70711 -1,1 -2,1c-1,0 -1,1 -2,1c-1,0 -1,1 -2,1c-1,0 -1.29291,0.29289 -2,1c-0.70709,0.70711 -1.07611,0.61732 -2,1c-1.30658,0.54119 -1.69342,1.45881 -3,2c-0.92389,0.38268 -2.29291,0.29289 -3,1c-0.70709,0.70711 -0.29291,1.29289 -1,2c-0.70709,0.70711 -1.29291,0.29289 -2,1c-0.70709,0.70711 -1.29291,1.29289 -2,2c-0.70709,0.70711 -1.29291,0.29289 -2,1c-0.70709,0.70711 -1.29291,0.29289 -2,1c-0.70709,0.70711 -0.69342,1.4588 -2,2c-0.92389,0.38268 -1.29291,0.29289 -2,1c-0.70709,0.70711 -1,1 -2,1c-1,0 -1.07611,0.61732 -2,1c-1.30658,0.5412 -2.07611,0.61732 -3,1c-1.30658,0.5412 -1.69342,1.4588 -3,2c-0.92389,0.38268 -1.69342,1.4588 -3,2c-0.92389,0.38268 -2,1 -3,1c-1,0 -1.69342,0.4588 -3,1c-0.92389,0.38268 -2.29291,-0.70711 -3,0c-0.70709,0.70711 -1.29291,0.29289 -2,1c-0.70709,0.70711 -1,1 -2,1c-1,0 -2,1 -3,1c-1,0 -2,0 -3,0c-1,0 -1.69342,0.4588 -3,1c-0.92389,0.38268 -2.02673,0.77025 -3,1c-2.17627,0.51374 -4.02673,0.77025 -5,1c-2.17627,0.51374 -4.05353,0.5405 -6,1c-2.17627,0.51374 -4,1 -6,1c-2,0 -4,0 -6,0c-1,0 -4,0 -6,0c-2,0 -4,1 -6,1c-1,0 -4,0 -7,0c-1,0 -3,1 -5,1c-1,0 -2,0 -3,0c-1,0 -2,0 -3,0c-1,0 -2,0 -4,0c-2,0 -3,0 -5,0c-1,0 -3,0 -5,0c-1,0 -3,0 -4,0c-2,0 -3,0 -4,0c-1,0 -2,0 -3,0c-1,0 -2,0 -3,0c-1,0 -2,0 -3,0c-2,0 -3,0 -4,0c-2,0 -5,0 -7,0c-1,0 -2,0 -3,0c-2,0 -3,0 -4,0c-1,0 -2,0 -3,0c-1,0 -2,0 -3,0c-1,0 -2,0 -3,0c-1,0 -2,0 -3,0c-1,0 -2,0 -3,0c-1,0 -2,0 -3,0c-1,0 -2,0 -3,0c-1,0 -2.02676,0.22975 -3,0c-2.17624,-0.51374 -4.93414,-2.14429 -7,-3c-2.92157,-1.21015 -5.08743,-1.79394 -10,-4c-2.03983,-0.91602 -7.38687,-2.91761 -10,-4c-1.84775,-0.76537 -6,-3 -9,-3c-2,0 -5.50433,0.40601 -10,-2c-1.24689,-0.6673 -6,-2 -8,-2c-1,0 -4,0 -5,0c-1,0 -4,0 -5,0l-1,0l-1,0l-1,0" id="svg_9" opacity="undefined" fill-opacity="null" stroke-opacity="null" stroke-dasharray="5,5" stroke-width="null" stroke="#000" fill="none"/>
  <path d="m408,66c-1,0 -2,0 -3,0c-1,0 -2,0 -3,0c-1,0 -3,0 -4,0c-4,0 -5,0 -7,0c-1,0 -3,0 -4,0c-2,0 -3,0 -6,0c-1,0 -3,0 -5,0c-2,0 -3,0 -5,0c-1,0 -2,0 -4,0c-1,0 -2,0 -3,0c-1,0 -2,0 -4,0c-1,0 -3,0 -5,0c-2,0 -3,0 -5,0c-1,0 -2,0 -4,0c-1,0 -2,0 -4,0c-2,0 -5,0 -7,0c-1,0 -5,0 -7,0c-1,0 -5,0 -6,0c-2,0 -3,0 -7,0c-1,0 -2,0 -5,0c-2,0 -3,0 -6,0c-1,0 -4,0 -5,0c-1,0 -4,0 -5,0c-1,0 -3,0 -5,0c-1,0 -5,0 -7,0c-1,0 -1.69345,0.4588 -3,1c-0.92389,0.38268 -4,0 -5,0c-2,0 -3.07611,0.61732 -4,1c-1.30655,0.5412 -4,1 -5,1c-2,0 -5.69345,1.4588 -7,2c-1.84775,0.76537 -6.02675,-0.22975 -7,0c-2.17625,0.51374 -3,1 -5,2c-2,1 -3.82375,1.48626 -6,2c-0.97325,0.22975 -6,2 -8,2c-3,0 -7.88496,2.27431 -10,3c-4.82303,1.65482 -6.92232,2.27346 -10,3c-6.88191,1.6246 -12.10701,2.08099 -16,3c-4.35251,1.02749 -13.02434,3.50731 -18,4c-10.14841,1.00489 -15.06456,1.19909 -20,2c-3.12144,0.50654 -13.02899,2.58389 -16,3c-7.20975,1.00976 -12.02997,2.51127 -16,3c-8.18443,1.00755 -10.90282,3.22421 -13,4c-3.867,1.4305 -5.94366,1.18835 -9,2c-4.9282,1.30875 -7.66891,3.62022 -11,5c-4.71088,1.95131 -6.90282,2.22421 -9,3c-3.867,1.4305 -6.10263,1.36755 -8,2c-4.74342,1.58114 -7,3 -9,4c-4,2 -5.01291,1.83982 -6,2c-3.12144,0.50654 -5.07612,1.61732 -6,2c-1.30656,0.5412 -2,1 -3,1c-1,0 -1.69344,1.4588 -3,2c-0.92388,0.38268 -2.15224,0.23463 -4,1c-2.61312,1.08239 -3.18601,2.69255 -5,4c-1.14727,0.8269 -2,1 -4,3c-1,1 -2,1 -3,2c-1,1 -1.29289,1.29289 -2,2c-0.70711,0.70711 -1.69344,0.4588 -3,1c-0.92388,0.38269 -1.797,1.2565 -3,2c-2.68999,1.66251 -4,2 -5,2c-2,0 -2.29289,0.29289 -3,1c-0.70711,0.70711 -1,1 -2,2c-1,1 -2.07612,1.61731 -3,2c-1.30656,0.5412 -1.07612,1.61731 -2,2c-1.30656,0.5412 -1.29289,1.29289 -2,2c-0.70711,0.70711 -1.29289,1.29289 -2,2c-0.70711,0.70711 -0.29289,1.29289 -1,2c-0.70711,0.70711 -1.07612,1.61731 -2,2c-1.30656,0.5412 -1,2 -2,2l0,1l-1,0l0,1" id="svg_12" opacity="undefined" fill-opacity="null" stroke-opacity="null" stroke-dasharray="5,5" stroke-width="null" stroke="#000" fill="none"/>
 </g>

</svg>