<svg width="713" height="170" xmlns="http://www.w3.org/2000/svg">
 <g>
  <title>Layer 1</title>
  <polyline stroke-linecap="round" id="svg_16" points="810,200 " opacity="NaN" fill-opacity="null" stroke-opacity="null" stroke-dasharray="5,5" stroke-width="null" stroke="#000" fill="none"/>
  <polyline stroke-linecap="round" id="svg_17" points="808,201 " opacity="NaN" fill-opacity="null" stroke-opacity="null" stroke-dasharray="5,5" stroke-width="null" stroke="#000" fill="none"/>
  <polyline stroke-linecap="round" id="svg_18" points="754,265 " opacity="NaN" fill-opacity="null" stroke-opacity="null" stroke-dasharray="5,5" stroke-width="null" stroke="#000" fill="none"/>
  <polyline stroke-linecap="round" id="svg_19" points="812,202 " opacity="NaN" fill-opacity="null" stroke-opacity="null" stroke-dasharray="5,5" stroke-width="null" stroke="#000" fill="none"/>
  <polyline stroke-linecap="round" id="svg_20" points="733,270 " opacity="NaN" fill-opacity="null" stroke-opacity="null" stroke-dasharray="5,5" stroke-width="null" stroke="#000" fill="none"/>
  <polyline stroke-linecap="round" id="svg_21" points="664,307 " opacity="NaN" fill-opacity="null" stroke-opacity="null" stroke-dasharray="5,5" stroke-width="null" stroke="#000" fill="none"/>
  <polyline stroke-linecap="round" id="svg_22" points="664,307 " opacity="NaN" fill-opacity="null" stroke-opacity="null" stroke-dasharray="5,5" stroke-width="null" stroke="#000" fill="none"/>
  <polyline stroke-linecap="round" id="svg_23" points="664,307 " opacity="NaN" fill-opacity="null" stroke-opacity="null" stroke-dasharray="5,5" stroke-width="null" stroke="#000" fill="none"/>
  <polyline stroke-linecap="round" id="svg_24" points="320,242 " opacity="NaN" fill-opacity="null" stroke-opacity="null" stroke-dasharray="5,5" stroke-width="null" stroke="#000" fill="none"/>
  <polyline stroke-linecap="round" id="svg_25" points="504,273 " opacity="NaN" fill-opacity="null" stroke-opacity="null" stroke-dasharray="5,5" stroke-width="null" stroke="#000" fill="none"/>
  <polyline stroke-linecap="round" id="svg_26" points="504,273 " opacity="NaN" fill-opacity="null" stroke-opacity="null" stroke-dasharray="5,5" stroke-width="null" stroke="#000" fill="none"/>
  <polyline stroke-linecap="round" id="svg_27" points="504,273 " opacity="NaN" fill-opacity="null" stroke-opacity="null" stroke-dasharray="5,5" stroke-width="null" stroke="#000" fill="none"/>
  <polyline stroke-linecap="round" id="svg_28" points="413,95 " opacity="NaN" fill-opacity="null" stroke-opacity="null" stroke-dasharray="5,5" stroke-width="null" stroke="#000" fill="none"/>
  <polyline stroke-linecap="round" id="svg_29" points="744,245 " opacity="NaN" fill-opacity="null" stroke-opacity="null" stroke-dasharray="5,5" stroke-width="null" stroke="#000" fill="none"/>
  <polyline stroke-linecap="round" id="svg_30" points="569,301 " opacity="NaN" fill-opacity="null" stroke-opacity="null" stroke-dasharray="5,5" stroke-width="null" stroke="#000" fill="none"/>
  <polyline stroke-linecap="round" id="svg_31" points="569,301 " opacity="NaN" fill-opacity="null" stroke-opacity="null" stroke-dasharray="5,5" stroke-width="null" stroke="#000" fill="none"/>
  <polyline stroke-linecap="round" id="svg_32" points="569,301 " opacity="NaN" fill-opacity="null" stroke-opacity="null" stroke-dasharray="5,5" stroke-width="null" stroke="#000" fill="none"/>
  <polyline stroke-linecap="round" id="svg_33" points="782,223 " opacity="NaN" fill-opacity="null" stroke-opacity="null" stroke-dasharray="5,5" stroke-width="null" stroke="#000" fill="none"/>
  <polyline stroke-linecap="round" id="svg_34" points="592,287 " opacity="NaN" fill-opacity="null" stroke-opacity="null" stroke-dasharray="5,5" stroke-width="null" stroke="#000" fill="none"/>
  <polyline stroke-linecap="round" id="svg_35" points="592,287 " opacity="NaN" fill-opacity="null" stroke-opacity="null" stroke-dasharray="5,5" stroke-width="null" stroke="#000" fill="none"/>
  <polyline stroke-linecap="round" id="svg_36" points="592,287 " opacity="NaN" fill-opacity="null" stroke-opacity="null" stroke-dasharray="5,5" stroke-width="null" stroke="#000" fill="none"/>
  <polyline stroke-linecap="round" id="svg_37" points="592,287 " opacity="NaN" fill-opacity="null" stroke-opacity="null" stroke-dasharray="5,5" stroke-width="null" stroke="#000" fill="none"/>
  <polyline stroke-linecap="round" id="svg_38" points="757,74 " opacity="NaN" fill-opacity="null" stroke-opacity="null" stroke-dasharray="5,5" stroke-width="null" stroke="#000" fill="none"/>
  <polyline stroke-linecap="round" id="svg_39" points="801,234 " opacity="NaN" fill-opacity="null" stroke-opacity="null" stroke-dasharray="5,5" stroke-width="null" stroke="#000" fill="none"/>
  <polyline stroke-linecap="round" id="svg_40" points="633,289 " opacity="NaN" fill-opacity="null" stroke-opacity="null" stroke-dasharray="5,5" stroke-width="null" stroke="#000" fill="none"/>
  <polyline stroke-linecap="round" id="svg_41" points="633,289 " opacity="NaN" fill-opacity="null" stroke-opacity="null" stroke-dasharray="5,5" stroke-width="null" stroke="#000" fill="none"/>
  <polyline stroke-linecap="round" id="svg_42" points="633,289 " opacity="NaN" fill-opacity="null" stroke-opacity="null" stroke-dasharray="5,5" stroke-width="null" stroke="#000" fill="none"/>
  <polyline stroke-linecap="round" id="svg_43" points="221,265 " opacity="NaN" fill-opacity="null" stroke-opacity="null" stroke-dasharray="5,5" stroke-width="null" stroke="#000" fill="none"/>
  <polyline stroke-linecap="round" id="svg_44" points="574,253 " opacity="NaN" fill-opacity="null" stroke-opacity="null" stroke-dasharray="5,5" stroke-width="null" stroke="#000" fill="none"/>
  <polyline stroke-linecap="round" id="svg_45" points="781,236 " opacity="NaN" fill-opacity="null" stroke-opacity="null" stroke-dasharray="5,5" stroke-width="null" stroke="#000" fill="none"/>
  <polyline stroke-linecap="round" id="svg_46" points="802,217 " opacity="NaN" fill-opacity="null" stroke-opacity="null" stroke-dasharray="5,5" stroke-width="null" stroke="#000" fill="none"/>
  <polyline stroke-linecap="round" id="svg_47" points="446,310 " opacity="NaN" fill-opacity="null" stroke-opacity="null" stroke-dasharray="5,5" stroke-width="null" stroke="#000" fill="none"/>
  <polyline stroke-linecap="round" id="svg_48" points="684,279 " opacity="NaN" fill-opacity="null" stroke-opacity="null" stroke-dasharray="5,5" stroke-width="null" stroke="#000" fill="none"/>
  <polyline stroke-linecap="round" id="svg_49" points="453,310 " opacity="NaN" fill-opacity="null" stroke-opacity="null" stroke-dasharray="5,5" stroke-width="null" stroke="#000" fill="none"/>
  <polyline stroke-linecap="round" id="svg_50" points="738,266 " opacity="NaN" fill-opacity="null" stroke-opacity="null" stroke-dasharray="5,5" stroke-width="null" stroke="#000" fill="none"/>
  <polyline stroke-linecap="round" id="svg_51" points="738,266 " opacity="NaN" fill-opacity="null" stroke-opacity="null" stroke-dasharray="5,5" stroke-width="null" stroke="#000" fill="none"/>
  <polyline stroke-linecap="round" id="svg_52" points="738,266 " opacity="NaN" fill-opacity="null" stroke-opacity="null" stroke-dasharray="5,5" stroke-width="null" stroke="#000" fill="none"/>
  <polyline stroke-linecap="round" id="svg_53" points="738,266 " opacity="NaN" fill-opacity="null" stroke-opacity="null" stroke-dasharray="5,5" stroke-width="null" stroke="#000" fill="none"/>
  <polyline stroke-linecap="round" id="svg_54" points="738,266 " opacity="NaN" fill-opacity="null" stroke-opacity="null" stroke-dasharray="5,5" stroke-width="null" stroke="#000" fill="none"/>
  <polyline stroke-linecap="round" id="svg_59" points="290,261 " opacity="NaN" fill-opacity="null" stroke-opacity="null" stroke-dasharray="5,5" stroke-width="null" stroke="#000" fill="none"/>
  <polyline stroke-linecap="round" id="svg_60" points="668,275 " opacity="NaN" fill-opacity="null" stroke-opacity="null" stroke-dasharray="5,5" stroke-width="null" stroke="#000" fill="none"/>
  <polyline stroke-linecap="round" id="svg_61" points="678,319 " opacity="NaN" fill-opacity="null" stroke-opacity="null" stroke-dasharray="5,5" stroke-width="null" stroke="#000" fill="none"/>
  <polyline stroke-linecap="round" id="svg_62" points="678,319 " opacity="NaN" fill-opacity="null" stroke-opacity="null" stroke-dasharray="5,5" stroke-width="null" stroke="#000" fill="none"/>
  <polyline stroke-linecap="round" id="svg_63" points="678,319 " opacity="NaN" fill-opacity="null" stroke-opacity="null" stroke-dasharray="5,5" stroke-width="null" stroke="#000" fill="none"/>
  <polyline stroke-linecap="round" id="svg_64" points="678,319 " opacity="NaN" fill-opacity="null" stroke-opacity="null" stroke-dasharray="5,5" stroke-width="null" stroke="#000" fill="none"/>
  <polyline stroke-linecap="round" id="svg_65" points="678,319 " opacity="NaN" fill-opacity="null" stroke-opacity="null" stroke-dasharray="5,5" stroke-width="null" stroke="#000" fill="none"/>
  <polyline stroke-linecap="round" id="svg_66" points="907,360 " opacity="NaN" fill-opacity="null" stroke-opacity="null" stroke-dasharray="5,5" stroke-width="null" stroke="#000" fill="none"/>
  <polyline stroke-linecap="round" id="svg_67" points="764,302 " opacity="NaN" fill-opacity="null" stroke-opacity="null" stroke-dasharray="5,5" stroke-width="null" stroke="#000" fill="none"/>
  <polyline stroke-linecap="round" id="svg_68" points="891,291 " opacity="NaN" fill-opacity="null" stroke-opacity="null" stroke-dasharray="5,5" stroke-width="null" stroke="#000" fill="none"/>
  <polyline stroke-linecap="round" id="svg_69" points="823,375 " opacity="NaN" fill-opacity="null" stroke-opacity="null" stroke-dasharray="5,5" stroke-width="null" stroke="#000" fill="none"/>
  <polyline stroke-linecap="round" id="svg_70" points="627,304 " opacity="NaN" fill-opacity="null" stroke-opacity="null" stroke-dasharray="5,5" stroke-width="null" stroke="#000" fill="none"/>
  <polyline stroke-linecap="round" id="svg_71" points="1013,278 " opacity="NaN" fill-opacity="null" stroke-opacity="null" stroke-dasharray="5,5" stroke-width="null" stroke="#000" fill="none"/>
  <polyline stroke-linecap="round" id="svg_72" points="931,260 " opacity="NaN" fill-opacity="null" stroke-opacity="null" stroke-dasharray="5,5" stroke-width="null" stroke="#000" fill="none"/>
  <polyline stroke-linecap="round" id="svg_73" points="744,332 " opacity="NaN" fill-opacity="null" stroke-opacity="null" stroke-dasharray="5,5" stroke-width="null" stroke="#000" fill="none"/>
  <polyline stroke-linecap="round" id="svg_74" points="744,332 " opacity="NaN" fill-opacity="null" stroke-opacity="null" stroke-dasharray="5,5" stroke-width="null" stroke="#000" fill="none"/>
  <polyline stroke-linecap="round" id="svg_75" points="860,357 " opacity="NaN" fill-opacity="null" stroke-opacity="null" stroke-dasharray="5,5" stroke-width="null" stroke="#000" fill="none"/>
  <polyline stroke-linecap="round" id="svg_76" points="754,284 " opacity="NaN" fill-opacity="null" stroke-opacity="null" stroke-dasharray="5,5" stroke-width="null" stroke="#000" fill="none"/>
  <polyline stroke-linecap="round" id="svg_77" points="754,284 " opacity="NaN" fill-opacity="null" stroke-opacity="null" stroke-dasharray="5,5" stroke-width="null" stroke="#000" fill="none"/>
  <polyline stroke-linecap="round" id="svg_78" points="754,284 " opacity="NaN" fill-opacity="null" stroke-opacity="null" stroke-dasharray="5,5" stroke-width="null" stroke="#000" fill="none"/>
  <path d="m3.5,1c1,1 1.82443,1.09789 3,3c0.52573,0.85065 0.61732,2.07612 1,3c0.5412,1.30656 1.4588,1.69344 2,3c0.38268,0.92388 0.61732,1.07612 1,2c0.5412,1.30656 2,2 3,3c1,1 2.21168,0.71412 5,3c1.09367,0.8966 2.58579,1.58579 4,3c0.70711,0.70711 1.69344,2.4588 3,3c0.92388,0.38268 1.07612,0.61732 2,1c1.30656,0.5412 1.29289,1.29289 2,2c0.70711,0.70711 1,1 2,1c1,0 1.07612,0.61732 2,1c1.30656,0.5412 1,2 2,2c1,0 1.29289,0.29289 2,1c0.70711,0.70711 1.69344,0.45881 3,1c0.92388,0.38268 1.69344,0.45881 3,1c0.92388,0.38268 2.02675,0.77025 3,1c2.17625,0.51374 2.82375,2.48626 5,3c0.97325,0.22975 1,1 2,1c1,0 2.29289,0.29289 3,1c0.70711,0.70711 0.29289,1.29289 1,2c0.70711,0.70711 1.29289,0.29289 2,1c0.70711,0.70711 1.69344,0.45881 3,1c0.92388,0.38268 1.29289,0.29289 2,1c0.70711,0.70711 2,1 3,1c1,0 2.69344,1.45881 4,2c0.92388,0.38268 2.69344,0.45881 4,1c1.84776,0.76537 3.69344,1.45881 5,2c0.92388,0.38268 3,1 4,1c1,0 2.29289,-0.70711 3,0c0.70711,0.70711 1,1 2,1c1,0 2.29289,-0.70711 3,0c0.70711,0.70711 1.07612,0.61732 2,1c1.30656,0.54119 2.29289,1.29289 3,2c0.70711,0.70711 2,0 3,0c1,0 1.69344,1.45881 3,2c0.92388,0.38268 2.29289,-0.70711 3,0c0.70711,0.70711 1,1 2,1c1,0 1,1 2,1c1,0 2,0 3,0c1,0 2,0 3,0c1,0 2,1 4,1c1,0 3,1 5,1c1,0 3,1 5,1c1,0 3.82375,0.48626 6,1c1.9465,0.4595 3,0 5,0c1,0 3,0 4,0c2,0 2.69344,0.4588 4,1c1.84776,0.76537 3,0 5,0c3,0 5,0 6,0c2,0 3,0 4,0c1,0 2,0 3,0c1,0 2,0 3,0c1,0 2,0 3,0c1,0 2,0 4,0c1,0 2,0 3,0c1,0 2,0 3,0c1,0 2,0 3,0c1,0 2,0 3,0c1,0 2,0 4,0c2,0 3,0 5,0c1,0 3,0 4,0c1,0 2,-1 3,-1c1,0 2,0 3,0l1,0l1,0" id="svg_86" opacity="undefined" fill-opacity="null" stroke-opacity="null" stroke-dasharray="5,5" stroke-width="null" stroke="#000" fill="none"/>
  <path d="m205.5,64c1,0 2,0 3,0c2,0 4,0 6,0c2,0 4,0 5,0c2,0 3,0 4,0c2,0 3,0 4,0c1,0 2,0 3,0c1,0 2,0 3,0c1,0 2,0 3,0c1,0 2,0 3,0c1,0 3,0 4,0c1,0 2,0 3,0l1,0l1,0l1,0" id="svg_87" opacity="undefined" fill-opacity="null" stroke-opacity="null" stroke-dasharray="5,5" stroke-width="null" stroke="#000" fill="none"/>
  <path d="m242.5,64c0,0 1,0 2,0c1,0 3,0 5,0c1,0 2,0 3,0c1,0 2,0 3,-1c1,-1 1.82376,-1.48626 4,-2c0.97324,-0.22975 2.07611,-0.61732 3,-1c1.30655,-0.54119 1.69345,-1.45881 3,-2c0.92389,-0.38268 2,0 3,0c1,0 2,0 4,0c1,0 2,0 3,0c1,0 3,0 4,0c1,0 2.29291,0.70711 3,0c0.70709,-0.70711 1.29291,-0.29289 2,-1c0.70709,-0.70711 1,-1 2,-1c1,0 1.29291,-1.29289 2,-2c0.70709,-0.70711 1.29291,-0.29289 2,-1c0.70709,-0.70711 1.69345,-0.45881 3,-1c0.92389,-0.38268 1.69345,-1.45881 3,-2c0.92389,-0.38268 1.69345,-0.45881 3,-1c0.92389,-0.38268 2.15225,-0.23463 4,-1c1.30655,-0.54119 2.02676,-0.77025 3,-1c2.17624,-0.51374 3.29291,-1.29289 4,-2c0.70709,-0.70711 1,-1 2,-1c1,0 2,-1 3,-1c1,0 1.07611,-0.61732 2,-1c1.30655,-0.54119 1.82376,-1.48626 4,-2c1.9465,-0.45951 3.04291,0.28978 4,0c3.45084,-1.04483 5.07611,-1.61732 6,-2c1.30655,-0.54119 1.85272,-1.1731 3,-2c1.814,-1.30745 3.15225,-1.23463 5,-2c1.30655,-0.54119 1.87857,-1.49346 5,-2c1.97418,-0.32036 3.64749,-0.97251 8,-2c1.9465,-0.45951 4.08026,0.68926 7,0c2.17624,-0.51374 3,-1 5,-1c5,0 7.96262,-0.49938 18,-1c3.99503,-0.19925 8,-1 14,-1c3,0 5,0 10,0c3,0 5,0 10,0c2,0 3,0 7,0c2,0 3.94342,0.14773 9,2c2.96933,1.08769 7,2 13,4c3,1 5.15686,1.5797 11,4c4.13171,1.71141 7.88681,2.29546 18,6c5.93866,2.17538 10.80243,4.43288 17,7c5.84314,2.4203 12.87546,4.47216 31,9c8.94464,2.23454 17.73389,7.08839 32,10c7.89941,1.61221 17.34595,0.7423 34,6c5.13531,1.62123 9,3 12,6c1,1 1.29291,1.29289 2,2c0.70709,0.70711 2.18604,-0.30745 4,1c3.44183,2.48071 5.70544,4.34619 8,6c3.62799,2.61491 5.07611,2.61732 6,3c1.30658,0.5412 1.02673,1.77025 2,2c2.17627,0.51374 1.85272,2.1731 3,3c1.81396,1.30745 2,3 3,4l1,0l0,1l0,1" id="svg_88" opacity="undefined" fill-opacity="null" stroke-opacity="null" stroke-dasharray="5,5" stroke-width="null" stroke="#000" fill="none"/>
  <path d="m626.5,95c0,1 0.29291,1.29289 1,2c1.41418,1.41422 2.61731,1.07612 3,2c0.5412,1.30656 1.69342,1.4588 3,2c0.92389,0.38268 0.29291,1.29289 1,2c0.70709,0.70711 1.58582,-0.41422 3,1c0.70709,0.70711 1,1 2,1c1,0 2,0 3,0c1,0 1.82373,1.48626 4,2c0.97327,0.22975 2,0 3,0c1,0 2.47424,1.14935 3,2c1.1756,1.90211 3.4588,0.69344 4,2c0.38269,0.92388 0.29291,2.29289 1,3c0.70709,0.70711 1.29291,2.29289 2,3c0.70709,0.70711 0.61731,1.07612 1,2c0.5412,1.30656 1,2 2,2c1,0 1.07611,0.61732 2,1c1.30658,0.5412 2.07611,1.61732 3,2c1.30658,0.5412 2.18604,0.69255 4,2c2.29456,1.65381 3.3869,3.9176 6,5c0.92389,0.38269 2.07611,1.61731 3,2c2.6131,1.0824 2.18604,2.69255 4,4c1.14728,0.8269 2.29291,1.29289 3,2c0.70709,0.70711 1.29291,1.29289 2,2c0.70709,0.70711 1,1 1,2l1,0" id="svg_89" opacity="undefined" fill-opacity="null" stroke-opacity="null" stroke-dasharray="5,5" stroke-width="null" stroke="#000" fill="none"/>
 </g>

</svg>