<svg xmlns="http://www.w3.org/2000/svg" width="21.753" height="17.674" viewBox="0 0 21.753 17.674"><defs><style>.a{fill:#df5332;}</style></defs><path class="a" d="M21.753,50.092a9.3,9.3,0,0,1-2.57.7,4.434,4.434,0,0,0,1.962-2.465,8.912,8.912,0,0,1-2.828,1.079A4.459,4.459,0,0,0,10.6,52.461a4.592,4.592,0,0,0,.1,1.017,12.623,12.623,0,0,1-9.192-4.665,4.461,4.461,0,0,0,1.37,5.96A4.4,4.4,0,0,1,.87,54.224v.049a4.48,4.48,0,0,0,3.573,4.382,4.451,4.451,0,0,1-1.169.147,3.943,3.943,0,0,1-.844-.076A4.5,4.5,0,0,0,6.6,61.832a8.961,8.961,0,0,1-5.529,1.9A8.355,8.355,0,0,1,0,63.673a12.555,12.555,0,0,0,6.841,2,12.605,12.605,0,0,0,12.693-12.69c0-.2-.007-.387-.016-.576A8.9,8.9,0,0,0,21.753,50.092Z" transform="translate(0 -48)"/></svg>