<svg xmlns="http://www.w3.org/2000/svg" xmlns:xlink="http://www.w3.org/1999/xlink" width="73.5" height="76.5" viewBox="0 0 73.5 76.5"><defs><style>.a{stroke:#707070;stroke-miterlimit:10;fill:url(#a);}.b{fill:#df5332;}.c{fill:#b5d840;}.d{fill:#475677;}</style><linearGradient id="a" x1="0.811" y1="-0.464" x2="0.175" y2="1.174" gradientUnits="objectBoundingBox"><stop offset="0" stop-color="#ff2737" stop-opacity="0.02"/><stop offset="1" stop-color="#cf2f45" stop-opacity="0.02"/></linearGradient></defs><g transform="translate(-222 0.5)"><g transform="translate(222)"><ellipse class="a" cx="34" cy="35" rx="34" ry="35" transform="translate(5)"/><path class="b" d="M7.52,0c3.568,0,8.887,9.5,7.135,12.593s-12.387,3.324-14.27,0S3.953,0,7.52,0Z" transform="translate(0 12)"/><circle class="c" cx="7.5" cy="7.5" r="7.5" transform="translate(25 61)"/><g transform="translate(22 21)"><path class="d" d="M21.594,25.073c-3.065-3.855-3.678-11.163,1.665-17.7A25.927,25.927,0,0,1,32.837,0l1.722,2.831c-5.311,2.626-9.283,6.188-9.845,12.158,2.4,0,4.386-.09,6.156.559a5.822,5.822,0,0,1,3.745,3.666,6.274,6.274,0,0,1-1.643,6.856h0A7.241,7.241,0,0,1,27.929,28,8.175,8.175,0,0,1,21.594,25.073Zm-19.26,0C-.733,21.218-1.345,13.91,4,7.375A25.927,25.927,0,0,1,13.576,0L15.3,2.831C9.986,5.457,6.016,9.018,5.454,14.989c2.4,0,4.386-.09,6.156.559a5.822,5.822,0,0,1,3.745,3.666,6.273,6.273,0,0,1-1.644,6.856h0A7.242,7.242,0,0,1,8.669,28,8.172,8.172,0,0,1,2.334,25.073Z"/></g></g></g></svg>