<svg xmlns="http://www.w3.org/2000/svg" width="152.597" height="152.597" viewBox="0 0 152.597 152.597"><defs><style>.a{fill:#df5332;}</style></defs><path class="a" d="M144.153,41.376A76.975,76.975,0,0,0,121.62,14.913a3.105,3.105,0,1,0-3.693,4.994,70.737,70.737,0,0,1,20.706,24.316A69.316,69.316,0,0,1,146.386,76.3,70.088,70.088,0,1,1,76.3,6.211,3.105,3.105,0,0,0,76.3,0a76.254,76.254,0,1,0,67.854,41.376Z"/><path class="a" d="M108.235,78.591a3.106,3.106,0,0,0-1.571,2.7v68.148a3.105,3.105,0,0,0,6.211,0V86.753l45.976,27.37-33.809,21.782a3.105,3.105,0,1,0,3.364,5.221l38.022-24.5a3.106,3.106,0,0,0-.094-5.279L111.358,78.622A3.105,3.105,0,0,0,108.235,78.591Z" transform="translate(-51.46 -37.72)"/></svg>