<svg xmlns="http://www.w3.org/2000/svg" width="31.4" height="31.4" viewBox="0 0 31.4 31.4"><defs><style>.a{fill:#fff;}</style></defs><path class="a" d="M31.4,15.3A15.44,15.44,0,0,1,8.534,28.688L0,31.4l2.782-8.207A15.135,15.135,0,0,1,.57,15.3a15.415,15.415,0,0,1,30.829,0ZM15.985,2.436A12.924,12.924,0,0,0,3.026,15.3a12.724,12.724,0,0,0,2.469,7.539L3.875,27.611l4.98-1.583A12.973,12.973,0,0,0,28.945,15.3,12.925,12.925,0,0,0,15.985,2.436Zm7.784,16.382c-.1-.156-.347-.25-.724-.438s-2.236-1.095-2.582-1.219-.6-.188-.851.187-.976,1.219-1.2,1.47-.441.282-.819.095a10.342,10.342,0,0,1-3.038-1.861,11.3,11.3,0,0,1-2.1-2.6c-.22-.375-.023-.578.166-.764.17-.168.378-.438.567-.657a2.513,2.513,0,0,0,.377-.626.683.683,0,0,0-.031-.657c-.094-.187-.851-2.032-1.165-2.783s-.629-.625-.85-.625-.472-.031-.724-.031a1.394,1.394,0,0,0-1.008.469,4.192,4.192,0,0,0-1.322,3.127,7.254,7.254,0,0,0,1.543,3.877c.189.25,2.613,4.159,6.454,5.66s3.842,1,4.534.937A3.822,3.822,0,0,0,23.549,20.6,3.126,3.126,0,0,0,23.769,18.818Z" transform="translate(0 0)"/></svg>